<svg height="20" viewBox="0 0 17.5 20" width="17.5" xmlns="http://www.w3.org/2000/svg"><path d="m17.5 14.0625v-13.125c0-.51953-.417969-.9375-.9375-.9375h-12.8125c-2.0703125 0-3.75 1.67969-3.75 3.75v12.5c0 2.07031 1.6796875 3.75 3.75 3.75h12.8125c.519531 0 .9375-.41797.9375-.9375v-.625c0-.29297-.136719-.55859-.347656-.73047-.164063-.60156-.164063-2.31641 0-2.91797.210937-.16797.347656-.43359.347656-.72656zm-12.5-8.82813c0-.1289.1054687-.23437.234375-.23437h8.28125c.128906 0 .234375.10547.234375.23437v.78125c0 .12891-.105469.23438-.234375.23438h-8.28125c-.1289063 0-.234375-.10547-.234375-.23438zm0 2.5c0-.1289.1054687-.23437.234375-.23437h8.28125c.128906 0 .234375.10547.234375.23437v.78125c0 .12891-.105469.23438-.234375.23438h-8.28125c-.1289063 0-.234375-.10547-.234375-.23438zm9.898438 9.76563h-11.148438c-.6914062 0-1.25-.55859-1.25-1.25 0-.6875.5625-1.25 1.25-1.25h11.148438c-.07422.66797-.07422 1.83203 0 2.5z" fill="#9ea3a8" stroke-width=".039063"/></svg>